<?xml version="1.0" encoding="utf-8"?>
<svg version="1.1" id="Layer_1" xmlns="http://www.w3.org/2000/svg" xmlns:xlink="http://www.w3.org/1999/xlink" x="0px" y="0px"
	 preserveAspectRatio="xMinYMin meet" viewBox="0 0 242 239" style="enable-background:new 0 0 242 239;" xml:space="preserve">
<polygon style="fill:none;stroke:#000000;stroke-miterlimit:10;" points="45.75,126 76.25,114 98.75,170 100.75,168.5 104.25,175.5
	120.75,163.25 225.25,173.75 182,131.5 176.25,130.5 235.25,64 159.75,129 149,121 146.75,93.25 71,23 78.5,106 71.5,105 "/>
<polyline style="fill:none;stroke:#000000;stroke-miterlimit:10;" points="182,131.5 161.25,130.5 134.75,110.5 105.75,155.5
	103.65,174.3 "/>
<polyline style="fill:none;stroke:#000000;stroke-miterlimit:10;" points="120.75,163.25 115,162 105.75,155.5 132.25,145.5
	160.733,130.11 "/>
<path style="fill:none;stroke:#000000;stroke-miterlimit:10;" d="M105.75,133.75"/>
<polyline style="fill:none;stroke:#000000;stroke-miterlimit:10;" points="71,23 118.133,122.724 134.75,110.5 129.123,146.68
	132.25,145.5 225.25,173.75 "/>
<polyline style="fill:none;stroke:#000000;stroke-miterlimit:10;" points="100.75,168.5 80.31,109.168 81,112.5 76.25,114
	45.75,126 81,108.832 84.25,107.25 78.5,106 84.25,107.25 114.192,142.4 105.75,132.49 134.75,110.5 148.78,118.288 "/>
<path style="fill:none;stroke:#000000;stroke-miterlimit:10;" d="M200.905,102.712c1.396,3.703,2.512,7.544,3.32,11.497"/>
<path style="fill:none;stroke:#000000;stroke-miterlimit:10;" d="M200.905,102.712"/>
<path style="fill:none;stroke:#000000;stroke-miterlimit:10;" d="M107.493,56.842c7.045-2.157,14.526-3.317,22.277-3.317
	c29.961,0,55.875,17.337,68.25,42.528"/>
<path style="fill:none;stroke:#000000;stroke-miterlimit:10;" d="M54.515,118.847c2.385-16.96,10.367-32.123,22.02-43.562"/>
<path style="fill:none;stroke:#000000;stroke-miterlimit:10;" d="M54.515,118.847"/>
<path style="fill:none;stroke:#000000;stroke-miterlimit:10;" d="M137.541,205.133c-2.556,0.26-5.148,0.393-7.771,0.393
	c-41.974,0-76-34.026-76-76c0-2.292,0.102-4.561,0.3-6.801"/>
<line style="fill:none;stroke:#000000;stroke-miterlimit:10;" x1="75.376" y1="75.626" x2="5" y2="5.25"/>
<path style="fill:none;stroke:#000000;stroke-miterlimit:10;" d="M75.376,75.626"/>
<line style="fill:none;stroke:#000000;stroke-miterlimit:10;" x1="191.624" y1="191.875" x2="167.722" y2="167.973"/>
<line style="fill:none;stroke:#000000;stroke-miterlimit:10;" x1="205.625" y1="205.876" x2="198.878" y2="199.129"/>
<line style="fill:none;stroke:#000000;stroke-miterlimit:10;" x1="233.25" y1="233.5" x2="213.375" y2="213.625"/>
<line style="fill:none;stroke:#000000;stroke-miterlimit:10;" x1="5" y1="5.25" x2="18" y2="5.25"/>
<line style="fill:none;stroke:#000000;stroke-miterlimit:10;" x1="5" y1="5.25" x2="5" y2="18.25"/>
</svg>
