<!--?xml version="1.0" encoding="utf-8"?-->
<svg version="1.1" id="Layer_1" xmlns="http://www.w3.org/2000/svg" xmlns:xlink="http://www.w3.org/1999/xlink" x="0px" y="0px" preserveAspectRatio="xMinYMin meet" viewBox="0 0 242 239" xml:space="preserve">
<path style="fill:none;stroke:#000000;stroke-miterlimit:10;" d="M45.75,126L76.25,114L98.75,170L100.75,168.5L104.25,175.5
	120.75,163.25L225.25,173.75L182,131.5L176.25,130.5L235.25,64L159.75,129L149,121L146.75,93.25L71,23L78.5,106L71.5,105Z" class="FOgKTXJy_0"></path>
<path style="fill:none;stroke:#000000;stroke-miterlimit:10;" d="M182,131.5L161.25,130.5L134.75,110.5L105.75,155.5
	103.65,174.3" class="FOgKTXJy_1"></path>
<path style="fill:none;stroke:#000000;stroke-miterlimit:10;" d="M120.75,163.25L115,162L105.75,155.5L132.25,145.5
	160.733,130.11" class="FOgKTXJy_2"></path>
<path style="fill:none;stroke:#000000;stroke-miterlimit:10;" d="M105.75,133.75" class="FOgKTXJy_3"></path>
<path style="fill:none;stroke:#000000;stroke-miterlimit:10;" d="M71,23L118.133,122.724L134.75,110.5L129.123,146.68
	132.25,145.5L225.25,173.75" class="FOgKTXJy_4"></path>
<path style="fill:none;stroke:#000000;stroke-miterlimit:10;" d="M100.75,168.5L80.31,109.168L81,112.5L76.25,114
	45.75,126L81,108.832L84.25,107.25L78.5,106L84.25,107.25L114.192,142.4L105.75,132.49L134.75,110.5L148.78,118.288" class="FOgKTXJy_5"></path>
<path style="fill:none;stroke:#000000;stroke-miterlimit:10;" d="M200.905,102.712c1.396,3.703,2.512,7.544,3.32,11.497" class="FOgKTXJy_6"></path>
<path style="fill:none;stroke:#000000;stroke-miterlimit:10;" d="M200.905,102.712" class="FOgKTXJy_7"></path>
<path style="fill:none;stroke:#000000;stroke-miterlimit:10;" d="M107.493,56.842c7.045-2.157,14.526-3.317,22.277-3.317
	c29.961,0,55.875,17.337,68.25,42.528" class="FOgKTXJy_8"></path>
<path style="fill:none;stroke:#000000;stroke-miterlimit:10;" d="M54.515,118.847c2.385-16.96,10.367-32.123,22.02-43.562" class="FOgKTXJy_9"></path>
<path style="fill:none;stroke:#000000;stroke-miterlimit:10;" d="M54.515,118.847" class="FOgKTXJy_10"></path>
<path style="fill:none;stroke:#000000;stroke-miterlimit:10;" d="M137.541,205.133c-2.556,0.26-5.148,0.393-7.771,0.393
	c-41.974,0-76-34.026-76-76c0-2.292,0.102-4.561,0.3-6.801" class="FOgKTXJy_11"></path>
<path style="fill:none;stroke:#000000;stroke-miterlimit:10;" d="M75.376,75.626L5,5.25" class="FOgKTXJy_12"></path>
<path style="fill:none;stroke:#000000;stroke-miterlimit:10;" d="M75.376,75.626" class="FOgKTXJy_13"></path>
<path style="fill:none;stroke:#000000;stroke-miterlimit:10;" d="M191.624,191.875L167.722,167.973" class="FOgKTXJy_14"></path>
<path style="fill:none;stroke:#000000;stroke-miterlimit:10;" d="M205.625,205.876L198.878,199.129" class="FOgKTXJy_15"></path>
<path style="fill:none;stroke:#000000;stroke-miterlimit:10;" d="M233.25,233.5L213.375,213.625" class="FOgKTXJy_16"></path>
<path style="fill:none;stroke:#000000;stroke-miterlimit:10;" d="M5,5.25L18,5.25" class="FOgKTXJy_17"></path>
<path style="fill:none;stroke:#000000;stroke-miterlimit:10;" d="M5,5.25L5,18.25" class="FOgKTXJy_18"></path>
<style>.FOgKTXJy_0{stroke-dasharray:753 755;stroke-dashoffset:754;animation:FOgKTXJy_draw 4000ms ease-out 0ms forwards;}.FOgKTXJy_1{stroke-dasharray:127 129;stroke-dashoffset:128;animation:FOgKTXJy_draw 4000ms ease-out 0ms forwards;}.FOgKTXJy_2{stroke-dasharray:78 80;stroke-dashoffset:79;animation:FOgKTXJy_draw 4000ms ease-out 0ms forwards;}.FOgKTXJy_3{stroke-dasharray:0 2;stroke-dashoffset:1;animation:FOgKTXJy_draw 4000ms ease-out 0ms forwards;}.FOgKTXJy_4{stroke-dasharray:269 271;stroke-dashoffset:270;animation:FOgKTXJy_draw 4000ms ease-out 0ms forwards;}.FOgKTXJy_5{stroke-dasharray:271 273;stroke-dashoffset:272;animation:FOgKTXJy_draw 4000ms ease-out 0ms forwards;}.FOgKTXJy_6{stroke-dasharray:12 14;stroke-dashoffset:13;animation:FOgKTXJy_draw 4000ms ease-out 0ms forwards;}.FOgKTXJy_7{stroke-dasharray:0 2;stroke-dashoffset:1;animation:FOgKTXJy_draw 4000ms ease-out 0ms forwards;}.FOgKTXJy_8{stroke-dasharray:108 110;stroke-dashoffset:109;animation:FOgKTXJy_draw 4000ms ease-out 0ms forwards;}.FOgKTXJy_9{stroke-dasharray:50 52;stroke-dashoffset:51;animation:FOgKTXJy_draw 4000ms ease-out 0ms forwards;}.FOgKTXJy_10{stroke-dasharray:0 2;stroke-dashoffset:1;animation:FOgKTXJy_draw 4000ms ease-out 0ms forwards;}.FOgKTXJy_11{stroke-dasharray:134 136;stroke-dashoffset:135;animation:FOgKTXJy_draw 4000ms ease-out 0ms forwards;}.FOgKTXJy_12{stroke-dasharray:100 102;stroke-dashoffset:101;animation:FOgKTXJy_draw 4000ms ease-out 0ms forwards;}.FOgKTXJy_13{stroke-dasharray:0 2;stroke-dashoffset:1;animation:FOgKTXJy_draw 4000ms ease-out 0ms forwards;}.FOgKTXJy_14{stroke-dasharray:34 36;stroke-dashoffset:35;animation:FOgKTXJy_draw 4000ms ease-out 0ms forwards;}.FOgKTXJy_15{stroke-dasharray:10 12;stroke-dashoffset:11;animation:FOgKTXJy_draw 4000ms ease-out 0ms forwards;}.FOgKTXJy_16{stroke-dasharray:29 31;stroke-dashoffset:30;animation:FOgKTXJy_draw 4000ms ease-out 0ms forwards;}.FOgKTXJy_17{stroke-dasharray:13 15;stroke-dashoffset:14;animation:FOgKTXJy_draw 4000ms ease-out 0ms forwards;}.FOgKTXJy_18{stroke-dasharray:13 15;stroke-dashoffset:14;animation:FOgKTXJy_draw 4000ms ease-out 0ms forwards;}@keyframes FOgKTXJy_draw{100%{stroke-dashoffset:0;}}@keyframes FOgKTXJy_fade{0%{stroke-opacity:1;}95.1219512195122%{stroke-opacity:1;}100%{stroke-opacity:0;}}</style></svg>
