<svg xmlns="http://www.w3.org/2000/svg" version="1.0" width="236.600000" height="338.000000" preserveAspectRatio="xMidYMid meet"><rect id="backgroundrect" width="100%" height="100%" x="0" y="0" fill="none" stroke="none"/>
<metadata>
Created by potrace 1.11, written by Peter Selinger 2001-2013
</metadata>

<g class="currentLayer"><title>Layer 1</title><g transform="translate(0,3380) scale(0.10000000149011612,-0.10000000149011612) " fill="none" stroke="#000000" id="svg_1" class="" stroke-opacity="1">
<path d="M10973 32105 c13 -49 18 -405 7 -500 -39 -332 -114 -531 -490 -1285 -135 -272 -258 -520 -272 -550 l-25 -55 -35 70 c-134 267 -191 629 -133 850 34 131 78 190 261 348 138 120 177 169 235 293 54 117 139 314 139 322 0 4 -24 -38 -53 -93 -130 -245 -177 -312 -293 -407 -147 -120 -234 -187 -234 -180 0 18 54 175 125 362 63 167 83 232 106 358 16 85 29 159 29 165 0 7 -23 -48 -51 -122 -28 -74 -91 -229 -141 -345 -165 -388 -201 -494 -239 -712 -29 -165 -32 -453 -6 -609 26 -151 80 -310 138 -401 59 -93 62 -132 23 -239 -44 -119 -101 -337 -125 -471 -30 -169 -32 -459 -6 -604 50 -272 154 -512 355 -815 47 -71 120 -200 163 -285 43 -85 104 -188 134 -228 101 -132 225 -344 225 -384 0 -8 -18 -57 -41 -109 -103 -238 -212 -619 -289 -1019 -22 -118 -44 -223 -48 -234 -7 -15 -13 -11 -46 30 -146 189 -363 399 -771 749 -309 264 -491 432 -518 474 -18 30 -22 49 -20 111 4 142 27 251 76 357 26 54 51 119 56 145 19 82 24 297 12 478 -6 96 -16 274 -22 395 -5 121 -17 270 -24 330 -20 146 -19 174 6 210 69 102 122 242 144 380 13 88 18 140 31 335 8 140 103 625 143 735 l11 30 -20 -25 c-28 -35 -113 -239 -171 -411 -41 -122 -54 -180 -79 -350 -38 -259 -73 -388 -123 -454 -15 -20 -15 -20 -21 5 -7 30 -59 254 -92 395 -13 55 -32 129 -44 165 -11 36 -20 83 -20 105 0 35 6 47 41 80 83 81 108 148 144 395 24 159 59 350 71 387 5 15 4 16 -5 3 -18 -24 -69 -191 -116 -375 -48 -187 -67 -238 -115 -305 -29 -39 -34 -42 -40 -24 -15 38 -30 227 -30 363 0 151 11 232 65 458 19 81 33 149 31 151 -6 5 -59 -138 -100 -268 -56 -176 -69 -274 -69 -510 0 -220 11 -342 63 -660 109 -673 132 -891 133 -1285 0 -359 -27 -574 -104 -808 -32 -96 -84 -217 -94 -217 -12 0 -109 159 -155 255 -80 167 -131 328 -171 543 -38 208 -50 342 -84 927 -16 273 -36 473 -62 615 -28 159 -32 274 -17 585 17 370 24 426 80 645 130 503 199 800 192 821 -2 7 -14 -23 -27 -67 -40 -139 -212 -687 -221 -703 -9 -17 -15 41 -30 339 -15 274 -37 535 -56 645 -14 87 -19 103 -29 94 -2 -3 0 -212 5 -464 6 -294 6 -515 0 -615 -10 -150 -55 -602 -65 -648 -4 -18 -26 17 -96 155 -114 224 -120 254 -89 387 20 85 22 114 16 210 -8 136 -41 436 -62 554 -15 88 -43 197 -48 191 -2 -2 8 -78 22 -169 33 -216 38 -577 9 -704 -9 -44 -19 -82 -21 -84 -3 -2 -22 24 -43 58 -235 379 -523 793 -499 716 4 -10 88 -156 188 -324 175 -295 289 -510 364 -684 91 -211 177 -467 213 -633 12 -55 36 -156 53 -224 35 -144 46 -307 48 -711 1 -264 15 -721 26 -863 l7 -87 -49 21 c-160 69 -432 209 -518 266 -133 88 -247 205 -308 313 -84 149 -84 214 -3 471 86 272 133 573 120 764 -16 235 -79 449 -207 704 l-83 164 -1 186 c-1 103 -9 251 -18 331 -39 336 -86 616 -107 650 -9 13 -10 13 -5 -2 5 -18 23 -178 31 -283 11 -158 18 -705 8 -705 -10 0 -264 512 -344 692 -23 54 -44 97 -45 95 -1 -1 17 -76 41 -167 48 -184 90 -285 268 -650 63 -129 134 -280 157 -335 177 -416 204 -700 105 -1095 -27 -105 -103 -350 -110 -350 -5 0 -43 127 -105 350 -28 102 -70 250 -94 330 -61 200 -60 190 -31 323 44 205 33 374 -40 592 -32 99 -316 758 -322 751 -4 -4 108 -322 191 -544 25 -67 60 -175 78 -240 30 -109 32 -128 33 -277 0 -108 -4 -175 -14 -205 l-13 -45 -14 30 c-7 17 -68 172 -135 345 -181 469 -374 920 -394 920 -3 0 5 -24 16 -52 18 -46 85 -249 149 -453 88 -280 400 -1353 400 -1377 0 -22 -81 67 -136 148 -29 45 -74 123 -98 175 -41 87 -120 325 -165 499 -19 70 -20 72 -20 32 -2 -101 141 -589 211 -723 16 -30 71 -104 123 -165 52 -60 106 -131 120 -159 14 -28 35 -105 49 -175 82 -426 209 -787 334 -950 126 -165 224 -226 567 -358 389 -149 434 -188 561 -477 79 -181 95 -213 164 -316 143 -212 342 -428 755 -818 403 -382 420 -399 413 -407 -13 -12 -351 44 -513 86 -197 50 -346 99 -535 175 -85 34 -197 72 -248 85 -141 34 -175 61 -239 189 -29 58 -82 180 -118 271 -36 92 -92 219 -125 283 -84 166 -416 714 -426 704 -2 -2 57 -118 132 -258 251 -471 345 -698 370 -898 l7 -54 -93 64 c-197 135 -350 292 -495 509 -80 120 -159 268 -307 580 -90 190 -234 460 -264 496 l-24 29 26 -59 c14 -33 101 -248 194 -478 169 -418 249 -593 331 -724 159 -255 341 -434 654 -641 473 -315 1014 -533 1556 -628 79 -14 168 -25 198 -25 100 0 180 -19 218 -53 83 -73 197 -287 212 -401 23 -164 -23 -345 -180 -714 -189 -443 -274 -563 -485 -687 -244 -143 -353 -222 -480 -349 -82 -83 -139 -150 -179 -213 -32 -51 -62 -93 -65 -93 -3 0 -20 29 -38 65 -91 185 -240 389 -423 581 -71 74 -139 153 -153 177 -45 78 -87 199 -146 426 -139 533 -354 1026 -621 1422 -74 109 -127 178 -420 548 l-126 159 -7 113 c-16 251 -72 570 -168 954 -38 156 -57 211 -44 130 35 -220 101 -1005 85 -1005 -12 0 -153 225 -211 335 -80 156 -94 194 -154 430 -45 178 -53 202 -53 158 -2 -104 117 -574 179 -710 66 -145 219 -398 393 -647 53 -77 95 -141 92 -144 -7 -8 -346 177 -450 246 -55 36 -118 84 -140 107 -42 42 -155 176 -219 260 -42 55 -42 40 -1 -53 49 -108 180 -247 375 -398 306 -235 412 -319 486 -386 330 -299 510 -660 704 -1412 27 -105 48 -191 47 -192 -1 -1 -69 48 -152 108 -82 60 -235 164 -338 231 -950 616 -1088 724 -1257 979 -131 198 -208 375 -276 637 -51 197 -65 349 -44 492 17 115 18 279 5 419 -21 204 -1 307 76 394 18 21 77 72 130 112 117 88 154 133 305 362 91 137 141 201 232 297 145 150 203 244 261 422 23 69 40 127 38 129 -2 2 -14 -15 -27 -39 -35 -64 -243 -378 -247 -373 -2 2 7 68 21 147 39 221 66 461 66 588 0 63 -2 112 -5 109 -3 -3 -16 -74 -30 -159 -26 -167 -97 -519 -120 -594 -36 -123 -156 -278 -365 -475 -85 -80 -197 -187 -249 -237 -52 -51 -96 -91 -97 -90 -5 5 16 260 32 377 28 208 58 333 120 498 34 89 75 155 270 437 144 208 180 354 171 687 -8 319 -73 765 -163 1123 -29 115 -40 134 -30 55 22 -171 50 -462 66 -695 15 -206 0 -527 -30 -675 -38 -185 -116 -345 -218 -443 l-39 -38 -6 99 c-8 110 -28 237 -57 356 -28 111 -25 167 16 324 l35 137 6 400 c3 220 3 398 0 394 -4 -3 -13 -79 -21 -170 -34 -366 -105 -815 -126 -792 -5 4 -56 123 -115 263 -122 290 -216 502 -221 497 -2 -2 41 -142 95 -313 253 -795 249 -779 258 -980 7 -168 -6 -314 -47 -514 -35 -171 -125 -549 -133 -556 -7 -8 -69 61 -138 152 -119 159 -200 325 -245 504 -14 52 -40 227 -59 390 -61 518 -112 852 -136 890 -8 12 -9 11 -5 -5 10 -38 36 -544 52 -995 l6 -175 -56 80 c-134 189 -239 393 -300 583 -32 100 -81 349 -151 767 -9 55 -19 102 -22 105 -26 24 108 -883 148 -1005 33 -97 101 -230 204 -395 170 -270 228 -400 255 -570 29 -186 69 -287 137 -351 21 -19 77 -66 125 -103 57 -43 97 -83 115 -113 25 -43 27 -55 26 -147 0 -56 -11 -171 -23 -256 -21 -142 -22 -181 -18 -473 3 -175 4 -316 2 -314 -2 2 -46 114 -98 250 -120 313 -161 409 -247 577 -170 335 -359 557 -611 715 -270 170 -335 224 -371 305 -11 24 -32 118 -47 207 l-28 163 -137 317 c-75 175 -165 382 -199 460 -33 79 -62 138 -64 133 -7 -19 127 -400 238 -680 67 -169 116 -341 125 -435 3 -33 8 -72 10 -87 3 -16 0 -28 -6 -28 -34 0 -338 258 -481 409 -111 116 -171 199 -347 475 -101 158 -133 184 -65 51 46 -91 139 -232 272 -414 245 -337 288 -380 742 -744 319 -256 308 -246 467 -390 67 -60 124 -116 128 -125 10 -25 -119 -6 -355 54 -118 30 -285 66 -372 79 -240 37 -350 69 -429 126 -33 23 -71 91 -89 159 -14 55 -65 156 -123 247 -63 98 -363 479 -344 438 3 -5 23 -40 46 -78 89 -145 311 -566 355 -671 15 -35 15 -38 -1 -32 -65 25 -178 120 -353 296 -177 178 -318 301 -425 373 -47 32 -70 36 -29 5 75 -55 296 -286 382 -398 174 -227 296 -331 508 -438 158 -79 324 -132 659 -211 50 -11 131 -37 180 -56 165 -66 263 -78 380 -50 33 8 68 14 77 15 75 1 209 -270 350 -710 33 -102 81 -251 108 -332 36 -110 45 -148 35 -148 -43 0 -238 91 -410 192 -60 35 -171 94 -245 130 -81 40 -148 79 -167 100 -17 18 -53 74 -79 123 -81 157 -160 233 -319 310 -102 49 -169 73 -328 116 -150 40 -548 165 -619 194 -32 12 -58 20 -58 16 0 -26 396 -217 643 -310 267 -100 416 -204 487 -340 l12 -24 -70 7 c-42 4 -157 0 -284 -10 -271 -21 -478 -15 -561 14 -108 39 -135 71 -201 237 -43 107 -120 218 -276 395 -150 172 -164 183 -87 65 115 -177 333 -572 321 -584 -12 -13 -634 450 -777 579 -143 128 120 -167 329 -370 191 -186 343 -297 518 -381 182 -86 313 -109 643 -109 94 0 207 -5 249 -11 176 -24 338 -96 584 -259 l154 -102 -35 -29 c-44 -36 -135 -85 -176 -94 -48 -10 -98 8 -214 78 -82 48 -129 69 -207 90 -167 45 -329 77 -410 82 -94 6 -76 0 141 -49 176 -39 294 -88 448 -187 l84 -54 -60 -7 c-85 -11 -781 -14 -835 -4 -73 13 -36 -11 51 -33 88 -22 235 -45 434 -66 190 -20 696 -38 739 -26 19 5 87 41 151 80 65 39 128 71 141 71 13 0 39 -14 58 -31 23 -20 74 -43 153 -70 165 -55 213 -83 241 -140 12 -25 31 -89 41 -142 16 -85 24 -105 69 -173 56 -81 68 -118 100 -287 15 -80 29 -123 54 -165 52 -88 187 -217 328 -312 69 -46 143 -97 165 -113 l40 -30 -90 7 c-49 4 -232 13 -405 21 -867 40 -1109 99 -1443 351 -87 66 -162 133 -403 358 -263 244 -399 343 -629 457 -104 51 -174 78 -273 104 -73 19 -145 41 -160 49 -30 16 -67 54 -103 106 -62 91 -499 572 -637 701 -114 107 -145 121 -58 28 141 -152 633 -781 615 -787 -15 -6 -144 36 -263 84 -263 108 -407 225 -650 529 -94 117 -89 105 42 -94 114 -175 220 -285 375 -389 166 -111 279 -160 692 -303 287 -99 430 -166 568 -267 56 -41 65 -51 50 -57 -10 -4 -92 -10 -183 -12 -254 -8 -479 32 -785 137 -223 77 -311 118 -530 246 -93 54 -210 108 -352 163 -117 44 -122 38 -12 -15 52 -25 220 -116 374 -202 155 -87 341 -182 416 -213 408 -171 780 -241 1026 -194 111 21 160 19 200 -7 19 -13 75 -72 126 -133 139 -167 397 -420 507 -497 168 -119 356 -207 560 -264 l102 -28 -54 -18 c-29 -11 -109 -31 -178 -45 -109 -23 -150 -27 -320 -27 -205 -1 -276 7 -436 50 -178 47 -302 106 -619 294 -472 281 -824 469 -1084 580 -239 102 -782 239 -1006 254 l-80 6 70 -14 c39 -7 106 -24 150 -36 198 -56 781 -267 770 -279 -12 -11 -784 -146 -927 -161 -61 -7 -28 -8 127 -4 231 5 279 9 500 49 129 23 170 26 290 23 125 -4 150 -8 234 -36 185 -64 360 -166 711 -416 102 -73 202 -144 224 -158 l38 -26 -58 -6 c-285 -30 -534 -85 -696 -155 -194 -82 -218 -83 -382 -9 -49 22 -214 78 -365 124 -152 47 -368 116 -481 153 -113 38 -207 68 -209 66 -2 -2 84 -46 190 -98 138 -67 249 -112 384 -157 335 -110 525 -183 525 -200 0 -10 -181 -74 -299 -105 -218 -57 -327 -70 -598 -70 -138 0 -250 -2 -248 -4 15 -15 313 -50 606 -71 214 -16 304 5 699 160 260 102 358 133 519 160 347 59 625 52 824 -19 186 -67 261 -92 432 -147 158 -50 192 -58 282 -62 121 -5 251 15 392 60 100 32 343 134 471 198 157 78 182 81 450 46 63 -8 194 -24 290 -36 225 -27 659 -113 727 -145 29 -13 74 -38 100 -56 97 -66 471 -350 578 -439 127 -105 395 -349 395 -359 0 -3 -55 -7 -123 -7 -121 -1 -124 -2 -290 -58 -92 -32 -176 -55 -186 -51 -10 3 -42 48 -71 100 -78 142 -151 197 -350 265 -170 58 -206 82 -292 194 -41 52 -90 100 -147 142 -128 95 -301 179 -301 147 0 -5 57 -37 126 -72 82 -42 135 -76 152 -97 37 -46 141 -238 131 -242 -14 -6 -284 38 -366 58 -75 20 -257 108 -320 156 -18 14 -33 20 -33 15 0 -16 189 -170 240 -196 78 -39 187 -74 425 -136 126 -33 264 -74 305 -90 100 -38 196 -103 243 -165 39 -51 66 -118 53 -132 -13 -13 -315 -15 -395 -2 -180 28 -310 69 -656 205 -115 45 -250 96 -300 113 -162 55 -377 102 -467 102 -23 0 -49 12 -86 39 -136 103 -378 175 -738 221 -189 24 -362 25 -814 5 -516 -24 -505 -32 45 -34 270 0 540 -6 600 -11 163 -15 334 -47 443 -81 104 -33 262 -104 262 -118 0 -4 -66 -11 -147 -14 -82 -4 -197 -13 -258 -21 -136 -19 -745 -119 -742 -122 1 -2 88 3 192 11 395 29 802 47 923 41 222 -11 486 -72 751 -171 198 -75 522 -211 524 -220 1 -5 -29 -21 -68 -35 -66 -24 -81 -25 -270 -25 -164 1 -232 5 -380 27 -399 60 -614 71 -817 42 -123 -17 -185 -39 -83 -29 124 12 379 -12 585 -55 566 -118 643 -131 810 -132 132 0 201 14 340 68 117 46 174 48 318 10 57 -15 138 -31 180 -37 109 -14 285 5 452 48 284 74 333 84 440 86 117 2 181 -10 278 -54 200 -89 358 -276 460 -539 31 -81 32 -165 3 -375 -43 -320 -46 -359 -45 -665 0 -332 9 -427 65 -702 72 -357 188 -688 380 -1087 44 -90 77 -166 75 -168 -9 -9 -167 50 -226 84 -82 48 -231 195 -294 290 -131 200 -230 442 -341 838 -20 72 -58 200 -85 286 -55 177 -174 611 -220 801 -16 70 -39 198 -50 285 -23 175 -66 364 -99 433 -12 25 -19 36 -15 25 25 -87 35 -146 45 -259 6 -72 9 -151 7 -176 l-3 -45 -60 90 c-35 53 -104 135 -170 200 -108 109 -113 112 -285 202 -163 85 -358 178 -317 150 51 -33 371 -267 442 -323 155 -120 289 -341 368 -604 33 -108 70 -300 59 -300 -3 0 -51 44 -106 98 -168 164 -364 298 -632 435 -106 55 -114 61 -174 140 -168 218 -260 309 -400 394 -112 68 -354 200 -380 208 -14 4 67 -55 180 -130 170 -114 223 -156 310 -244 92 -92 200 -234 189 -246 -2 -2 -141 59 -309 136 -882 406 -1189 543 -1197 535 -9 -9 117 -101 399 -289 l288 -192 -43 -13 c-23 -8 -89 -16 -147 -19 -191 -10 -374 41 -596 167 -71 40 -139 80 -153 88 -23 15 -24 15 -15 0 37 -66 418 -276 566 -312 152 -37 351 -30 456 16 32 13 60 18 87 15 44 -5 414 -154 626 -251 446 -205 789 -468 973 -745 49 -74 120 -204 131 -239 6 -22 5 -22 -37 -16 -88 14 -292 75 -430 130 -137 54 -442 201 -576 278 -120 68 -520 348 -711 497 -80 62 -98 73 -80 47 43 -60 328 -335 434 -417 95 -75 343 -246 455 -314 l45 -28 -45 8 c-25 4 -88 8 -140 7 -114 -1 -225 -27 -493 -113 -103 -34 -191 -61 -196 -61 -4 0 -41 44 -82 97 -132 174 -439 554 -567 703 -169 196 -500 524 -647 641 -229 184 -424 300 -661 394 -272 109 -533 247 -849 450 -172 110 -285 148 -527 174 -194 22 -365 13 -868 -45 -342 -39 -559 -69 -568 -79 -7 -6 74 -5 642 16 148 5 271 7 274 4 9 -8 -73 -80 -122 -108 -75 -42 -190 -82 -376 -131 -216 -58 -212 -57 -207 -62 15 -16 471 73 577 112 66 24 84 37 150 105 42 43 88 83 103 88 115 44 586 -57 769 -164 70 -41 194 -143 185 -152 -3 -2 -66 1 -141 7 -330 27 -685 -42 -1026 -200 -288 -132 -376 -156 -534 -147 -107 7 -338 40 -395 57 -19 5 -37 8 -39 5 -15 -14 187 -66 394 -100 87 -15 160 -28 162 -30 5 -4 -303 -154 -381 -185 -43 -16 -140 -41 -215 -54 l-137 -24 80 -1 c197 -2 360 55 980 344 126 59 268 120 315 135 391 128 804 118 1250 -30 80 -26 168 -58 195 -70 l50 -22 -23 -18 c-35 -29 -252 -137 -350 -174 -133 -52 -292 -82 -573 -111 -149 -15 -299 -36 -356 -50 -222 -54 -419 -156 -598 -310 -248 -214 -380 -352 -215 -224 244 188 302 231 383 277 156 89 350 156 487 169 l65 6 -35 -38 c-70 -76 -400 -328 -580 -444 -36 -24 -54 -39 -40 -35 73 20 407 212 595 341 83 57 105 78 128 121 16 29 37 57 48 62 14 8 103 8 294 1 413 -16 443 -10 675 139 247 159 283 180 310 180 31 0 280 -170 460 -314 147 -118 332 -289 438 -405 l83 -90 -33 -5 c-18 -3 -77 -10 -131 -16 -114 -12 -115 -12 -312 -140 -288 -186 -492 -295 -549 -293 -17 1 -62 15 -99 32 -83 39 -256 84 -402 106 -93 14 -157 16 -415 10 -346 -8 -379 -5 -528 55 -138 55 -243 74 -367 67 -113 -6 -349 -35 -379 -47 -11 -4 90 -6 224 -6 266 1 307 -5 432 -61 59 -26 74 -43 39 -43 -69 0 -812 -207 -826 -230 -2 -4 30 1 73 11 88 21 409 77 658 114 396 60 771 50 1102 -30 102 -25 308 -97 325 -114 12 -12 -114 -82 -238 -130 -238 -94 -402 -126 -886 -171 -264 -24 -416 -50 -545 -91 -199 -63 -337 -154 -428 -282 -81 -116 -84 -126 -15 -61 173 165 263 220 424 262 127 33 335 57 335 38 0 -23 -152 -155 -285 -248 -139 -96 -179 -131 -288 -259 -64 -74 -74 -96 -24 -52 49 43 260 194 433 311 85 57 169 122 195 151 24 27 58 65 74 84 l30 35 296 1 c163 0 339 5 390 11 245 29 464 112 806 306 62 35 115 64 117 64 2 0 -32 -53 -74 -117 -43 -65 -140 -226 -216 -358 -75 -132 -150 -257 -167 -278 -41 -53 -87 -73 -202 -86 -248 -30 -451 -75 -610 -138 -49 -19 -202 -96 -340 -171 -347 -188 -347 -190 7 -29 103 47 197 89 209 92 20 7 20 6 3 -27 -21 -41 -129 -153 -210 -219 -54 -45 -194 -195 -233 -252 -8 -12 9 -1 38 25 29 27 114 95 190 152 227 173 329 276 340 344 6 35 7 36 91 59 47 13 125 30 173 38 111 20 397 43 397 33 0 -14 -148 -173 -231 -248 -195 -176 -320 -269 -644 -480 -283 -184 -260 -168 -252 -176 14 -14 237 113 502 284 578 375 695 487 1070 1037 327 479 522 710 677 803 106 63 159 77 298 77 201 0 252 -29 380 -220 29 -44 111 -156 182 -248 71 -93 128 -170 126 -172 -2 -2 -71 -17 -153 -35 -133 -27 -265 -73 -251 -87 4 -4 394 70 429 82 7 2 32 -21 57 -53 94 -119 282 -331 389 -440 63 -63 106 -114 99 -117 -57 -17 -106 -29 -263 -61 -470 -95 -581 -162 -875 -524 -184 -227 -243 -273 -390 -301 -84 -16 -327 -16 -407 -1 -33 7 -153 42 -265 78 -306 99 -452 134 -551 133 l-82 -1 65 -15 c179 -40 356 -94 556 -169 237 -88 399 -138 507 -156 37 -6 67 -14 67 -18 0 -11 -456 -211 -625 -275 l-100 -37 -121 6 c-121 7 -123 6 -280 -35 -183 -48 -204 -49 -689 -35 -201 7 -299 6 -346 -3 -67 -11 -313 -91 -404 -130 -56 -25 -47 -23 80 13 107 31 385 89 392 82 8 -8 -150 -177 -338 -360 -101 -99 -177 -176 -169 -171 8 5 69 45 135 88 222 148 317 226 386 319 93 125 129 139 291 119 51 -7 149 -19 218 -27 69 -9 197 -19 285 -22 l160 -7 -95 -71 c-52 -40 -107 -85 -122 -100 -14 -16 -53 -83 -86 -149 -32 -66 -74 -145 -92 -175 -82 -138 -179 -349 -237 -515 -31 -88 -85 -295 -72 -275 5 8 40 69 76 135 156 283 491 841 499 832 3 -2 -5 -60 -16 -128 -11 -68 -29 -217 -40 -331 -18 -190 -56 -393 -90 -478 -9 -21 -5 -19 20 10 32 37 71 146 89 245 6 33 20 141 31 240 55 491 105 600 325 708 90 45 220 85 420 132 352 82 455 108 563 145 61 21 112 36 112 33 0 -27 -147 -242 -248 -363 -44 -52 -171 -192 -282 -310 -349 -369 -449 -503 -582 -778 -72 -148 -91 -177 -210 -325 -122 -152 -136 -173 -223 -352 -100 -205 -175 -383 -175 -412 1 -10 55 88 120 217 66 129 143 266 171 303 61 81 249 290 255 284 7 -6 -35 -351 -52 -437 -21 -102 -61 -224 -94 -290 -30 -60 -241 -287 -348 -375 -34 -27 -59 -51 -57 -53 6 -6 185 110 287 185 80 60 105 85 153 157 104 157 158 314 224 661 60 310 98 412 211 564 87 118 470 505 484 490 2 -2 -3 -44 -11 -94 -9 -56 -12 -134 -10 -205 4 -100 10 -130 42 -225 20 -60 40 -138 43 -173 4 -56 2 -69 -27 -125 -18 -34 -75 -114 -127 -177 -80 -95 -108 -139 -164 -255 -78 -160 -97 -215 -49 -140 71 111 395 525 410 525 12 0 11 -72 -2 -146 -23 -131 -74 -251 -190 -447 -78 -131 -165 -295 -174 -327 l-6 -25 18 21 c62 73 308 392 352 457 63 93 113 197 144 292 35 112 31 276 -12 475 -42 196 -40 291 9 445 26 82 33 126 40 247 11 182 21 208 127 320 118 125 152 177 332 506 140 258 213 365 326 477 149 150 261 194 617 245 115 16 238 37 274 45 36 8 82 15 104 15 49 0 213 -34 317 -65 87 -27 107 -37 372 -194 340 -202 464 -247 1061 -380 281 -63 439 -106 605 -166 324 -118 468 -186 579 -276 99 -80 616 -596 761 -759 425 -478 716 -902 978 -1426 142 -283 246 -559 287 -764 22 -107 39 -310 26 -310 -5 0 -31 20 -59 44 -165 140 -437 266 -992 461 -467 164 -587 219 -895 410 -263 163 -367 231 -456 300 -67 53 -86 74 -112 128 -57 114 -92 309 -92 504 0 122 -17 300 -41 415 -42 212 -121 383 -264 574 -143 189 -334 411 -233 269 69 -96 357 -640 345 -651 -5 -5 -201 132 -282 197 -120 96 -211 201 -350 404 -76 110 -144 207 -152 215 -23 24 215 -389 263 -457 25 -35 70 -90 101 -124 70 -75 275 -248 352 -296 136 -86 138 -94 121 -442 -11 -246 -8 -351 16 -494 l7 -38 -209 137 c-184 120 -309 205 -659 446 -122 85 -234 197 -274 275 -56 112 -79 215 -132 583 -13 90 -106 511 -115 519 -4 3 -4 -5 -1 -19 17 -75 58 -391 72 -565 16 -189 45 -396 61 -440 16 -40 -120 87 -282 265 -228 251 -430 561 -525 805 -28 71 -89 243 -136 380 -46 138 -82 237 -79 220 3 -16 15 -86 26 -155 44 -267 121 -502 241 -742 22 -44 39 -82 37 -84 -11 -10 -138 104 -206 186 -97 116 -139 148 -312 240 -74 40 -163 88 -197 107 -68 38 -87 39 -25 2 79 -48 382 -262 407 -287 15 -15 45 -58 68 -97 66 -113 101 -150 220 -228 134 -89 205 -161 343 -352 56 -77 139 -183 186 -235 106 -119 347 -352 466 -450 50 -41 91 -78 91 -82 1 -10 -129 22 -209 53 -106 40 -227 104 -438 231 -304 183 -551 287 -799 337 -86 18 -265 30 -252 17 2 -2 69 -16 149 -30 157 -27 292 -70 464 -146 108 -49 325 -168 369 -203 26 -22 60 -24 -548 28 -452 39 -430 37 -423 30 17 -17 598 -115 948 -160 l195 -25 170 -84 c263 -130 588 -266 636 -266 11 0 73 -40 137 -88 64 -49 279 -205 477 -347 198 -141 407 -294 465 -339 109 -85 378 -341 368 -351 -3 -4 -32 1 -64 9 -106 27 -197 37 -336 37 -222 0 -356 -23 -806 -137 -161 -41 -302 -74 -312 -74 -11 0 -20 6 -20 14 0 7 -61 71 -136 141 -139 132 -161 162 -196 269 -38 115 -273 556 -324 606 -8 8 0 -19 19 -60 79 -174 233 -570 222 -570 -3 0 -51 26 -107 57 -247 137 -633 309 -746 333 -73 16 -88 7 -22 -14 78 -26 299 -122 481 -209 203 -98 316 -183 537 -404 94 -95 172 -177 172 -182 0 -17 -170 -25 -278 -13 -196 22 -364 93 -702 298 -271 163 -1006 524 -1070 524 -6 0 58 -35 142 -79 136 -69 349 -185 650 -352 54 -30 98 -57 98 -61 0 -4 -12 -6 -27 -3 -16 2 -84 6 -153 9 -290 13 -749 36 -795 40 -96 10 -21 -12 133 -38 144 -24 275 -39 587 -66 155 -14 317 -43 393 -72 61 -23 101 -45 258 -144 231 -144 438 -192 724 -165 151 14 197 22 460 71 487 92 593 105 839 97 184 -5 266 -18 486 -77 635 -169 1194 -536 1531 -1008 97 -134 132 -210 159 -347 77 -378 84 -885 25 -1630 -34 -425 -40 -533 -50 -920 -10 -373 -40 -1190 -60 -1635 -5 -124 -14 -335 -20 -470 -5 -135 -12 -297 -15 -360 -10 -218 -35 -866 -45 -1165 -5 -165 -14 -685 -20 -1155 -5 -470 -12 -900 -15 -955 -2 -55 -7 -183 -10 -285 -12 -386 -39 -760 -80 -1110 -13 -113 -31 -288 -40 -390 -39 -463 -91 -683 -225 -946 -89 -174 -103 -214 -135 -375 -33 -166 -46 -212 -80 -281 -74 -151 -247 -321 -427 -417 -95 -51 -203 -87 -473 -156 -287 -73 -404 -112 -550 -185 -162 -80 -288 -177 -543 -421 -242 -229 -334 -309 -442 -380 -41 -27 -71 -49 -68 -49 18 0 174 58 246 91 106 49 212 113 447 270 453 302 527 332 1135 468 376 85 559 121 730 145 92 13 295 36 321 36 5 0 9 -36 9 -81 0 -126 -52 -258 -148 -379 -20 -25 -111 -121 -202 -215 -92 -93 -185 -195 -207 -225 -82 -110 -134 -244 -132 -340 1 -43 1 -43 9 -13 26 111 145 254 289 347 40 26 191 107 335 180 143 72 346 179 450 236 279 155 321 202 416 470 50 138 72 182 106 209 55 43 131 17 270 -92 98 -78 155 -153 270 -354 99 -173 143 -227 315 -379 128 -113 248 -250 336 -382 30 -45 57 -82 60 -82 10 0 -11 118 -33 190 -28 89 -83 199 -189 375 -153 254 -210 392 -222 532 l-6 73 31 0 c49 0 162 -27 253 -60 93 -34 219 -102 354 -193 131 -88 489 -354 645 -480 168 -135 244 -186 490 -327 107 -62 246 -146 308 -186 102 -67 112 -71 91 -42 -45 64 -118 128 -221 194 -57 37 -134 87 -173 112 -92 60 -176 141 -224 216 -21 34 -84 146 -141 251 -123 228 -150 269 -276 410 -90 101 -154 187 -154 207 0 13 131 9 231 -8 173 -29 348 -95 663 -252 160 -79 338 -164 395 -189 226 -96 489 -172 731 -211 241 -39 241 -39 85 26 -380 159 -519 234 -945 512 -448 293 -481 308 -865 415 -244 67 -343 136 -418 288 -58 117 -151 265 -276 441 -182 255 -229 346 -276 530 -62 247 -75 406 -75 946 0 367 -4 489 -25 775 -21 288 -45 615 -115 1598 -20 270 -30 417 -55 752 -69 960 -100 1890 -125 3850 -14 1086 -13 1444 5 1595 159 1359 1291 3006 2480 3612 510 259 955 331 1428 232 299 -63 380 -97 707 -300 257 -160 348 -213 475 -277 386 -193 795 -297 1170 -297 277 0 937 65 1055 105 25 8 33 13 19 10 -80 -14 -412 -26 -783 -28 -364 -1 -434 1 -516 16 -305 57 -605 169 -895 337 -136 78 -357 221 -351 227 2 2 84 -12 183 -31 528 -104 892 -146 1267 -146 530 0 877 75 1313 280 68 32 123 61 123 63 0 2 -62 -18 -137 -44 -320 -112 -474 -153 -678 -179 -131 -17 -412 -29 -534 -22 l-114 7 89 53 c49 29 174 115 277 192 160 118 216 154 370 231 179 89 182 93 72 72 -87 -16 -281 -122 -528 -290 -183 -124 -314 -193 -417 -219 -75 -20 -212 -21 -315 -4 -59 9 -432 90 -670 145 -136 31 -500 128 -508 135 -4 4 34 17 85 30 145 36 365 115 578 207 482 211 568 246 722 297 252 85 475 126 793 147 169 12 448 7 930 -16 143 -7 77 10 -115 29 -662 67 -1070 67 -1399 0 -159 -32 -345 -85 -456 -130 -37 -15 64 94 179 193 223 191 408 294 625 348 75 19 194 45 266 58 l130 24 -64 6 c-101 11 -139 8 -261 -17 -316 -67 -591 -216 -885 -481 -152 -138 -356 -277 -474 -325 -106 -43 -315 -119 -417 -150 -187 -58 -320 -82 -479 -87 -136 -5 -165 -2 -315 25 -240 44 -361 56 -580 56 -424 0 -723 -73 -1191 -290 -78 -36 -160 -72 -183 -81 -48 -17 -146 -33 -146 -23 0 4 37 51 82 105 204 245 606 549 1165 884 l222 133 114 -11 c141 -14 593 -14 787 -1 447 31 930 109 1028 165 15 9 19 14 9 11 -88 -27 -466 -58 -982 -81 -71 -3 -202 -10 -290 -14 -192 -10 -466 6 -480 29 -6 10 213 130 422 233 201 99 385 174 643 264 227 78 490 176 486 181 -7 6 -692 -203 -977 -299 -182 -61 -348 -123 -461 -173 -44 -19 -45 -14 -18 48 49 116 169 251 325 369 89 66 174 112 342 183 51 21 91 40 89 42 -10 9 -257 -63 -315 -93 -123 -62 -254 -157 -357 -259 -100 -100 -101 -102 -133 -197 -18 -55 -41 -105 -54 -116 -12 -11 -89 -55 -172 -98 -1099 -573 -2000 -1330 -2715 -2280 -134 -179 -364 -523 -484 -725 -47 -80 -86 -137 -86 -128 0 30 121 610 155 745 47 184 155 444 326 785 316 631 693 1178 983 1425 115 99 289 271 559 555 103 108 218 220 255 247 233 175 666 292 1258 341 137 11 265 23 284 26 261 41 402 93 536 196 283 217 338 249 430 249 100 0 174 -44 488 -291 235 -184 535 -406 613 -453 151 -91 297 -142 469 -167 44 -6 252 -15 464 -20 367 -10 628 -24 667 -36 17 -5 17 -5 0 9 -40 33 -334 87 -697 127 -241 26 -376 52 -502 96 -127 44 -178 70 -296 148 l-94 61 199 6 c216 7 314 20 588 81 99 22 221 43 270 47 l90 8 -130 1 c-100 1 -175 -5 -325 -29 -148 -23 -243 -32 -395 -36 -353 -10 -396 6 -656 249 -96 88 -209 190 -251 227 -72 61 -76 66 -55 74 39 15 444 20 582 8 363 -32 691 -111 1035 -249 181 -72 301 -131 610 -297 646 -347 1130 -588 1146 -572 13 13 -1013 620 -1539 912 -97 54 -176 99 -174 101 1 2 68 -3 147 -11 234 -22 530 -35 760 -32 256 2 215 17 475 -173 99 -73 198 -143 221 -156 50 -29 302 -134 504 -209 241 -89 218 -73 -125 85 -126 58 -252 120 -279 137 -72 45 -386 297 -376 301 13 5 380 -63 590 -108 96 -21 189 -41 205 -44 31 -7 -106 49 -208 84 -71 25 -288 74 -417 94 -205 33 -323 41 -775 56 -595 19 -761 39 -1137 134 -551 140 -893 184 -1264 165 -321 -16 -438 -49 -994 -277 -135 -55 -325 -121 -395 -136 -29 -6 -28 -5 20 41 28 26 133 126 235 223 409 387 600 549 827 700 446 296 733 362 1373 315 269 -20 265 -18 421 -157 612 -546 1182 -750 1729 -618 74 18 164 33 200 34 60 1 72 -3 163 -52 97 -53 98 -53 310 -87 116 -19 279 -46 361 -60 82 -14 151 -23 153 -21 13 12 -307 103 -482 136 -60 12 -144 33 -186 47 -76 25 -146 60 -137 69 6 5 585 145 763 184 77 17 116 29 95 29 -87 2 -513 -66 -860 -137 -107 -22 -251 -48 -318 -56 -130 -17 -413 -22 -397 -8 14 12 319 142 438 186 125 47 223 70 427 100 191 28 186 30 -40 16 -265 -17 -326 -32 -735 -175 -335 -118 -365 -114 -726 96 -190 110 -519 338 -519 359 0 5 17 4 38 0 86 -20 451 -60 629 -70 282 -16 582 6 830 59 79 17 84 17 99 0 25 -28 91 -40 254 -46 231 -8 400 9 610 62 278 70 494 138 536 170 13 10 5 9 -31 -4 -79 -30 -481 -129 -575 -142 -166 -23 -521 -11 -605 21 l-20 8 20 8 c456 172 1115 480 1115 522 0 4 -44 -14 -98 -39 -109 -53 -565 -250 -712 -309 -187 -74 -480 -148 -735 -185 -126 -19 -525 -33 -525 -19 0 19 160 127 265 179 147 72 270 111 655 210 670 172 641 184 -133 59 -154 -25 -281 -43 -284 -41 -9 9 80 98 164 163 103 81 227 147 323 173 42 11 141 24 226 30 140 10 156 13 225 45 41 19 72 35 68 35 -3 1 -45 -8 -95 -19 -56 -13 -154 -24 -264 -30 -281 -14 -349 -44 -624 -273 -148 -123 -230 -177 -330 -217 -152 -60 -261 -124 -381 -223 -32 -27 -70 -53 -83 -58 -32 -12 -190 12 -512 78 -146 30 -338 69 -427 86 -90 18 -163 34 -163 37 1 3 67 27 148 53 187 61 356 129 762 307 253 111 390 164 620 240 162 54 325 105 363 115 37 10 65 20 63 22 -9 9 -383 -49 -471 -72 -123 -33 -306 -96 -583 -200 -128 -48 -235 -85 -238 -82 -7 7 306 278 421 364 129 97 131 100 60 68 -151 -66 -238 -123 -420 -275 -318 -266 -393 -304 -746 -379 -194 -42 -267 -49 -574 -60 -283 -11 -374 -24 -513 -73 -247 -87 -489 -242 -866 -555 -88 -73 -162 -130 -164 -128 -9 9 169 355 246 478 109 172 227 339 285 403 64 70 105 84 287 94 205 12 272 26 573 127 109 36 196 67 194 69 -2 2 -38 -3 -80 -11 -129 -25 -384 -63 -532 -79 -248 -28 -248 -28 -241 -17 9 14 438 392 680 600 105 89 193 165 196 168 23 24 -117 -62 -302 -186 -123 -82 -292 -192 -376 -245 -85 -53 -206 -135 -270 -183 -126 -93 -319 -275 -410 -387 -47 -57 -57 -65 -63 -50 -11 28 -10 103 2 168 21 113 63 185 215 366 144 173 295 406 334 517 l10 28 -18 -25 c-35 -50 -253 -320 -415 -513 -242 -290 -290 -393 -306 -668 -10 -165 -12 -169 -158 -320 -127 -131 -148 -174 -207 -411 -46 -183 -84 -281 -132 -337 -16 -19 -99 -98 -184 -175 -302 -272 -344 -293 -680 -331 -80 -9 -164 -20 -187 -25 -24 -4 -43 -5 -43 -2 0 2 28 50 63 106 298 477 475 923 549 1378 31 190 31 531 0 701 -56 304 -141 507 -330 790 l-26 39 28 55 c16 30 54 76 85 104 83 74 258 187 416 269 77 40 166 88 197 107 106 63 135 62 217 -6 157 -129 508 -281 779 -336 347 -71 775 -58 1157 36 152 38 239 46 302 29 26 -8 106 -53 180 -102 212 -140 212 -140 393 -149 151 -8 239 -17 750 -80 438 -54 612 -70 800 -76 133 -4 193 -2 215 7 28 11 28 13 10 21 -16 6 -841 176 -1127 231 -32 7 -58 14 -58 17 0 13 415 152 512 172 174 36 242 26 613 -85 11 -4 -32 19 -95 50 -266 130 -496 126 -915 -16 -188 -64 -264 -74 -426 -56 -143 16 -254 41 -331 75 -50 21 -138 95 -138 116 0 12 243 82 520 150 336 82 633 115 853 95 280 -26 413 -86 782 -355 304 -221 425 -291 590 -344 185 -59 205 -59 100 -2 -133 71 -545 340 -590 383 -7 7 59 8 190 5 l200 -4 120 -43 c66 -23 137 -51 159 -62 76 -39 23 3 -76 58 -153 87 -244 111 -513 134 -198 17 -218 24 -390 149 -49 36 -120 84 -158 107 -59 36 -64 42 -45 48 41 11 249 6 413 -9 213 -20 306 -19 452 5 331 54 590 123 645 171 l23 21 -25 -7 c-413 -102 -514 -119 -675 -112 -125 6 -333 32 -344 43 -19 19 228 169 377 230 91 37 297 93 492 133 l45 9 -45 1 c-83 2 -396 -73 -650 -155 -79 -25 -129 -49 -203 -98 -136 -90 -142 -92 -312 -76 -201 18 -342 9 -480 -30 -106 -31 -120 -32 -365 -40 -433 -14 -560 -35 -945 -160 -159 -52 -351 -103 -365 -98 -4 2 20 40 54 86 34 45 102 152 151 238 48 86 110 190 137 230 75 113 328 344 395 360 13 4 127 -10 251 -31 128 -21 279 -40 347 -43 189 -7 568 34 712 78 80 25 103 37 251 132 177 114 260 152 336 151 34 0 90 -8 126 -18 133 -36 303 -13 560 74 186 63 263 92 257 98 -3 2 -83 -16 -179 -41 -212 -55 -335 -76 -455 -76 -97 0 -201 17 -186 30 10 10 406 152 673 241 113 38 198 69 190 69 -55 1 -620 -159 -1149 -325 -63 -19 -115 -34 -117 -32 -6 6 177 183 261 252 96 80 260 192 333 229 61 31 335 141 376 152 15 3 25 8 22 11 -2 2 -84 -16 -182 -42 -204 -53 -298 -96 -492 -225 -164 -110 -270 -196 -397 -326 -147 -150 -166 -158 -483 -223 -356 -73 -574 -78 -789 -16 -29 9 -53 19 -53 23 0 4 15 15 33 26 497 288 842 432 1567 656 192 60 189 58 165 59 -52 2 -657 -170 -1067 -302 -76 -25 -135 -39 -131 -33 17 29 192 257 236 308 26 31 74 76 104 100 71 54 103 87 103 104 0 22 -13 17 -94 -36 -99 -65 -213 -176 -379 -370 -157 -183 -221 -231 -446 -336 -386 -180 -675 -390 -972 -706 -84 -90 -221 -231 -303 -313 -205 -204 -280 -243 -511 -265 -497 -46 -958 54 -1319 287 l-69 44 34 23 c19 13 113 69 209 126 318 187 486 314 573 430 25 33 75 118 111 189 111 218 263 427 340 468 16 8 86 23 156 33 204 30 314 62 463 137 95 47 138 74 342 218 234 166 319 207 588 281 156 43 282 85 527 174 63 23 145 48 183 56 78 16 249 18 417 4 63 -5 233 -14 376 -21 456 -21 730 14 1019 128 83 32 218 103 211 110 -1 2 -49 -13 -107 -33 -57 -19 -180 -58 -274 -85 -210 -61 -311 -73 -580 -66 -216 5 -685 46 -685 59 0 4 8 8 18 8 10 0 68 14 128 30 364 101 680 233 949 397 122 74 445 283 445 287 0 1 -96 -45 -212 -104 -305 -152 -784 -367 -794 -357 -6 5 90 142 143 204 67 79 134 125 375 258 120 65 216 120 215 122 -2 1 -57 -21 -123 -51 -65 -29 -176 -77 -246 -106 -161 -67 -212 -107 -336 -267 -102 -132 -168 -200 -218 -226 -62 -32 -175 -58 -372 -87 -236 -34 -482 -92 -757 -179 -104 -33 -198 -63 -207 -66 -30 -12 333 349 402 399 89 66 127 84 337 160 220 80 373 144 473 198 103 56 348 211 385 244 25 22 26 24 5 11 -142 -83 -376 -204 -463 -239 -141 -56 -545 -183 -555 -174 -7 7 55 70 169 173 166 148 235 192 459 295 100 46 69 44 -95 -7 -222 -70 -394 -189 -770 -534 -225 -207 -308 -277 -480 -406 -383 -287 -714 -473 -1025 -575 -125 -41 -317 -87 -326 -78 -3 3 24 64 59 134 97 195 500 1105 558 1263 13 35 38 78 54 96 25 27 40 33 90 38 33 3 92 2 130 -3 190 -25 271 2 570 189 242 152 433 262 498 289 53 22 86 27 222 34 393 20 404 23 670 138 132 57 184 89 66 41 -146 -61 -253 -89 -376 -101 -107 -9 -347 -6 -384 6 -8 3 66 53 165 112 156 93 193 121 287 212 155 149 287 309 287 346 0 6 -69 -58 -152 -142 l-153 -153 -145 -69 c-690 -332 -898 -428 -908 -418 -9 9 26 113 63 186 49 97 125 200 218 293 89 91 118 114 437 357 141 107 205 160 185 156 -64 -16 -361 -233 -624 -456 -182 -155 -194 -167 -297 -310 -202 -282 -275 -364 -359 -402 -46 -21 -63 -23 -194 -21 -79 1 -145 4 -148 7 -6 5 187 403 289 596 64 120 82 145 162 225 77 77 108 99 201 147 61 31 214 98 340 148 337 135 429 185 544 295 110 105 232 248 262 306 36 72 14 51 -55 -51 -85 -126 -153 -200 -229 -252 -102 -69 -293 -154 -552 -243 -137 -48 -292 -107 -342 -130 -51 -24 -93 -40 -93 -36 0 12 148 235 240 361 229 316 414 512 855 908 38 34 64 62 57 62 -48 0 -347 -259 -725 -630 -131 -128 -170 -161 -177 -150 -36 57 -37 250 -2 350 43 123 92 194 282 408 105 119 78 105 -74 -39 -184 -175 -254 -281 -296 -445 -24 -94 -25 -177 -4 -283 16 -80 16 -80 -9 -133 -13 -29 -64 -102 -112 -163 -92 -115 -266 -372 -379 -559 -36 -62 -67 -103 -70 -95 -11 38 -49 347 -53 444 -5 99 -2 122 25 235 53 217 175 626 216 724 25 61 10 41 -48 -61 -181 -324 -278 -560 -309 -753 -36 -224 -30 -747 11 -829 l17 -36 -48 -90 c-27 -49 -148 -290 -270 -535 -122 -245 -226 -446 -230 -448 -4 -1 -27 23 -51 55 -23 32 -68 78 -100 101 -40 30 -63 57 -76 87 -35 83 -148 605 -171 798 -15 123 -10 144 88 307 94 158 222 414 251 504 13 38 34 144 47 235 14 91 32 186 40 211 26 78 89 144 273 289 59 47 122 109 171 170 184 228 420 561 477 673 57 113 13 66 -128 -138 -214 -310 -249 -356 -347 -453 -88 -88 -396 -351 -410 -351 -17 0 40 255 85 382 38 107 118 265 167 329 23 31 94 119 157 194 176 210 173 207 115 158 -105 -86 -322 -319 -377 -403 -99 -150 -186 -345 -228 -509 -11 -42 -35 -163 -54 -268 -19 -106 -42 -220 -51 -255 -42 -162 -141 -365 -291 -593 l-58 -90 -9 70 c-14 116 -13 518 2 645 18 156 62 362 106 500 26 83 108 261 292 638 140 288 253 526 250 528 -6 6 -96 -138 -325 -516 -233 -386 -348 -626 -417 -875 -18 -66 -36 -113 -39 -105 -11 30 -56 307 -66 409 -14 141 -13 248 5 363 14 97 44 185 254 748 44 118 78 216 76 218 -5 6 -174 -334 -285 -573 -51 -110 -96 -204 -100 -208 -36 -40 -49 396 -17 556 19 96 74 265 143 446 25 63 43 116 40 118 -8 8 -46 -65 -80 -153 -43 -111 -113 -335 -161 -519 -36 -135 -37 -144 -32 -260 4 -66 16 -169 27 -230 20 -100 21 -130 15 -345 -4 -129 -9 -237 -11 -239 -8 -9 -105 93 -146 153 -109 159 -150 317 -188 731 -66 708 -84 717 -77 38 4 -394 8 -504 21 -573 34 -175 77 -273 174 -394 98 -123 201 -214 229 -204 5 2 9 -10 11 -27 16 -183 47 -423 67 -521 30 -148 42 -256 50 -444 3 -80 10 -185 15 -235 5 -49 19 -193 30 -320 31 -345 59 -497 124 -663 61 -160 100 -225 208 -347 57 -64 110 -129 119 -143 21 -35 13 -64 -47 -167 -26 -44 -89 -160 -140 -258 -110 -207 -158 -288 -268 -452 -154 -228 -377 -490 -559 -656 -144 -132 -131 -130 -124 -21 7 108 -5 315 -33 592 -24 231 -36 446 -26 483 9 38 60 92 114 123 52 29 384 370 433 444 54 81 88 157 118 262 52 183 49 183 -51 9 -117 -207 -167 -262 -347 -383 -75 -50 -162 -111 -194 -136 -32 -24 -60 -43 -61 -41 -7 8 53 280 87 394 20 66 68 212 107 325 65 191 132 419 195 669 29 115 30 156 1 65 -25 -81 -168 -463 -324 -864 -212 -547 -215 -561 -216 -962 -1 -153 -2 -278 -3 -278 -6 0 -141 244 -182 330 -71 150 -95 242 -93 362 2 97 26 357 38 404 3 13 4 24 0 24 -15 0 -98 -293 -108 -387 -26 -221 18 -397 190 -768 118 -255 140 -339 149 -571 12 -329 -26 -403 -287 -565 -87 -54 -470 -249 -489 -249 -6 0 -13 12 -17 28 -30 133 -65 233 -207 592 -177 446 -207 592 -156 742 20 57 21 75 16 222 -6 181 4 257 54 387 55 143 132 243 389 504 256 262 326 343 436 510 163 248 317 603 363 835 20 99 62 362 82 510 17 127 36 472 25 445 -3 -5 -16 -75 -31 -155 -43 -242 -167 -755 -221 -919 -57 -170 -231 -473 -378 -656 -129 -160 -337 -367 -353 -352 -9 10 15 174 38 263 28 106 77 235 161 423 80 178 158 388 222 594 41 133 70 256 62 264 -2 2 -13 -25 -26 -59 -62 -170 -233 -533 -330 -698 -216 -370 -308 -617 -314 -845 -2 -75 -8 -120 -19 -140 -8 -17 -65 -79 -127 -139 -159 -154 -216 -253 -273 -471 -21 -80 -55 -286 -57 -348 -1 -19 -46 72 -91 184 -159 400 -198 810 -115 1203 76 357 203 567 594 983 225 239 286 309 373 423 95 126 151 237 186 368 23 87 26 124 33 352 4 153 12 271 20 295 6 22 38 104 71 181 72 173 84 220 99 370 6 65 23 154 36 198 100 332 108 384 94 566 -5 72 -6 73 -12 30 -4 -25 -11 -95 -17 -156 -11 -109 -40 -247 -66 -308 l-13 -31 -7 30 c-17 80 -73 244 -127 375 -34 80 -80 204 -104 275 -24 72 -44 125 -44 118 0 -6 30 -157 66 -335 l66 -323 1 -185 c0 -207 -18 -326 -74 -470 -49 -129 -49 -129 -93 20 -52 176 -165 489 -220 610 -25 54 -51 120 -58 145 -12 43 -11 50 11 88 73 132 66 59 68 676 2 305 0 552 -3 549 -8 -9 -31 -179 -45 -328 -6 -74 -12 -256 -13 -405 -1 -260 -2 -273 -26 -340 -14 -38 -29 -69 -34 -68 -29 6 -87 288 -122 590 -41 352 -37 680 11 913 8 36 12 66 10 68 -8 8 -43 -76 -58 -138 -31 -124 -41 -253 -41 -510 1 -445 25 -637 119 -965 35 -124 133 -437 163 -525 20 -59 -149 157 -417 533 -89 125 -164 227 -165 227 -2 0 26 -53 63 -117 37 -65 116 -207 176 -315 60 -108 127 -221 149 -251 62 -83 152 -174 201 -203 61 -35 58 -26 145 -440 45 -217 49 -425 10 -578 -34 -136 -106 -266 -227 -414 -78 -96 -314 -344 -321 -337 -3 3 -16 42 -29 88 -42 143 -110 299 -287 656 -251 505 -306 691 -306 1030 0 179 15 307 71 610 64 345 87 499 100 657 25 318 -20 598 -132 819 -54 106 -139 248 -145 242 -2 -2 16 -46 40 -98 106 -229 137 -335 157 -538 23 -237 -11 -478 -151 -1041 -37 -151 -76 -319 -86 -372 -10 -54 -20 -98 -24 -98 -10 0 -170 271 -215 365 -73 154 -89 209 -89 310 0 86 4 100 77 315 100 293 106 320 112 535 l5 180 -20 -150 c-27 -200 -47 -274 -118 -440 -90 -209 -103 -237 -109 -232 -2 3 -11 151 -18 329 -28 659 -28 658 -36 598 -18 -132 -41 -495 -46 -725 -11 -476 23 -618 247 -1060 76 -148 150 -304 164 -344 15 -41 47 -176 72 -300 54 -273 82 -358 214 -656 284 -639 346 -884 265 -1033 -14 -27 -69 -101 -121 -165 -200 -250 -341 -637 -384 -1062 -6 -60 -13 -111 -15 -113 -2 -2 -52 38 -112 90 -59 52 -164 141 -233 198 -311 259 -530 472 -574 558 -48 95 -45 167 24 474 22 98 46 223 54 277 19 140 35 169 216 391 144 177 206 403 216 790 5 169 -5 317 -18 280 -3 -8 -23 -148 -43 -310 -52 -406 -82 -517 -182 -667 -40 -60 -140 -186 -151 -190 -4 -2 -8 88 -8 200 -2 273 -30 500 -98 794 -33 141 -33 157 4 285 45 158 113 616 159 1084 26 255 38 509 24 501 -5 -4 -13 -45 -17 -92 -22 -297 -225 -1445 -254 -1445 -8 0 -57 201 -86 355 -17 93 -20 148 -19 348 0 174 -3 235 -11 227 -16 -16 -20 -287 -6 -485 18 -262 38 -427 70 -580 27 -128 61 -315 74 -407 2 -21 1 -38 -3 -38 -11 0 -104 146 -144 225 -45 91 -92 224 -111 317 -19 93 -66 461 -66 518 0 24 -3 40 -7 36 -15 -15 4 -406 28 -576 23 -159 100 -346 234 -570 92 -153 98 -175 103 -370 4 -181 -18 -401 -59 -580 -28 -121 -127 -502 -133 -507 -5 -5 -80 125 -129 222 -294 587 -401 1357 -312 2242 43 431 125 700 382 1258 183 396 221 502 248 682 14 97 19 177 8 128 -31 -138 -114 -380 -169 -495 -60 -126 -210 -411 -257 -489 l-21 -35 -13 50 c-23 91 -36 235 -29 328 11 161 36 275 132 596 52 172 93 319 91 324 -10 29 -145 -356 -237 -674 -65 -226 -70 -291 -40 -539 26 -214 24 -230 -44 -406 -102 -259 -170 -566 -213 -954 -22 -197 -25 -794 -5 -1006 28 -294 72 -521 147 -754 144 -445 420 -893 764 -1240 64 -64 238 -228 386 -362 286 -260 421 -396 463 -468 14 -24 45 -107 68 -185 53 -178 100 -307 174 -468 32 -71 54 -128 50 -128 -4 0 -56 20 -115 45 -60 25 -160 60 -224 76 -119 32 -178 56 -199 82 -7 8 -30 58 -51 112 -22 53 -61 133 -88 177 -83 139 -465 634 -652 846 -75 84 -101 106 -101 84 0 -11 99 -170 225 -362 58 -89 105 -165 105 -170 0 -10 -145 21 -222 48 -57 20 -119 58 -195 119 -24 19 -43 31 -43 28 0 -4 27 -40 61 -80 52 -63 72 -79 142 -113 45 -22 120 -52 167 -67 47 -15 104 -38 126 -51 51 -29 117 -102 164 -179 35 -59 130 -285 130 -311 0 -31 -332 115 -474 210 -239 159 -401 351 -555 656 -137 270 -193 459 -267 890 -9 52 -18 97 -21 100 -13 13 42 -420 73 -570 40 -193 171 -523 279 -701 19 -31 35 -61 35 -66 0 -13 -120 3 -205 28 -174 51 -278 135 -390 314 -78 124 -133 198 -167 224 -102 78 -104 77 -23 -16 53 -61 101 -132 145 -213 150 -275 224 -335 490 -396 209 -48 226 -59 307 -206 85 -152 131 -186 363 -258 356 -111 426 -138 874 -334 264 -116 335 -154 403 -219 68 -64 103 -120 170 -270 152 -338 211 -498 238 -638 36 -191 10 -252 -141 -334 -85 -46 -193 -132 -263 -208 -20 -21 -49 -45 -64 -53 -25 -14 -31 -14 -45 -1 -10 8 -27 18 -39 21 -13 4 -63 37 -113 72 -198 142 -418 232 -715 291 -72 14 -139 18 -335 18 -227 -1 -254 -3 -370 -27 -235 -51 -469 -147 -649 -266 -266 -178 -450 -427 -561 -758 -44 -134 -60 -219 -90 -479 -23 -192 -38 -541 -25 -572 4 -11 17 43 36 152 51 299 139 722 165 792 128 341 343 593 632 741 457 235 1022 241 1502 16 157 -74 281 -163 420 -303 211 -211 334 -430 404 -716 46 -190 47 -512 3 -731 -68 -329 -199 -651 -403 -992 -320 -533 -741 -971 -1599 -1662 -238 -192 -477 -438 -657 -676 -316 -418 -577 -940 -754 -1511 -21 -68 -42 -123 -46 -123 -4 0 -8 4 -8 10 0 19 -123 297 -195 442 -249 498 -544 929 -961 1403 -160 182 -304 324 -659 647 -574 523 -791 780 -979 1163 -209 423 -336 872 -377 1324 -15 167 -7 506 16 651 72 472 250 831 519 1046 207 166 459 246 776 247 259 1 462 -43 685 -147 385 -181 702 -517 935 -991 154 -312 209 -515 235 -870 9 -121 19 -222 21 -224 15 -15 19 35 20 222 3 344 -18 517 -88 737 -125 393 -325 727 -594 992 -120 118 -211 192 -325 263 -274 170 -555 263 -857 282 -56 3 -101 9 -99 12 2 3 28 58 59 121 129 267 202 497 293 923 42 197 57 296 85 547 25 224 61 414 89 467 41 82 288 284 581 476 298 194 362 223 780 347 275 81 460 151 573 213 76 43 173 121 211 171 l26 35 -83 -46 c-145 -80 -289 -144 -387 -169 -77 -20 -326 -69 -510 -100 l-35 -5 56 58 c264 274 454 591 586 978 18 55 61 195 94 310 121 421 169 544 355 917 41 81 74 151 74 155 0 3 -12 -4 -26 -18 -79 -74 -375 -673 -505 -1021 -138 -371 -234 -579 -349 -757 -59 -91 -161 -223 -193 -249 -21 -17 -23 -7 -38 148 -21 223 6 469 71 649 51 143 115 302 146 364 46 91 8 36 -57 -83 -194 -357 -238 -531 -239 -945 0 -246 5 -232 -123 -359 -122 -121 -262 -216 -686 -465 -123 -72 -226 -129 -229 -126 -12 12 79 327 139 478 53 132 102 228 230 448 126 217 229 420 289 572 23 59 58 127 77 152 19 25 87 85 151 134 188 142 214 177 427 591 78 151 168 317 199 369 70 115 190 354 282 561 37 85 138 295 224 465 223 442 297 650 365 1022 49 270 54 345 11 163 -91 -388 -150 -565 -275 -825 -74 -152 -181 -339 -181 -315 0 19 99 917 105 953 9 51 -14 18 -35 -51 -31 -99 -72 -294 -125 -586 -65 -363 -118 -526 -255 -795 -64 -125 -212 -376 -236 -401 -13 -13 -14 -6 -10 60 3 41 8 127 11 190 12 253 62 648 104 825 11 44 18 81 16 83 -6 7 -95 -277 -119 -381 -34 -143 -43 -200 -61 -380 -28 -285 -95 -631 -140 -722 -26 -53 -139 -191 -277 -339 l-83 -88 0 298 c0 165 -6 402 -14 529 -23 387 -5 625 69 873 56 188 160 427 282 647 46 82 330 566 343 583 1 1 40 13 86 27 181 54 325 150 388 260 l23 40 -44 -41 c-133 -126 -246 -193 -342 -202 -48 -4 -58 -2 -54 9 4 8 39 88 78 179 146 335 260 647 260 713 0 23 -10 5 -34 -68 -49 -143 -158 -421 -196 -494 -70 -140 -412 -678 -431 -680 -15 -2 -31 209 -26 328 8 202 20 242 196 640 80 181 100 235 59 156 -11 -22 -67 -123 -123 -225 -57 -102 -115 -214 -129 -250 -71 -174 -103 -414 -76 -575 5 -33 10 -90 11 -126 1 -78 -13 -116 -93 -239 -145 -226 -292 -551 -352 -783 -55 -211 -59 -269 -60 -842 -2 -495 -3 -539 -24 -670 -52 -332 -143 -607 -300 -909 -38 -72 -85 -157 -105 -189 l-38 -58 -72 62 c-165 142 -191 167 -248 234 -33 39 -76 98 -96 133 -43 77 -101 300 -110 423 -7 109 6 140 113 259 240 267 432 579 518 840 51 153 167 552 162 557 -2 2 -12 -20 -22 -49 -42 -127 -234 -628 -262 -683 -41 -81 -136 -224 -209 -315 -97 -120 -283 -335 -293 -338 -18 -6 10 257 42 393 57 247 121 382 354 745 62 97 137 223 168 280 107 204 216 486 270 705 26 102 86 418 85 445 0 8 -33 -100 -74 -241 -95 -329 -125 -411 -245 -654 -90 -183 -244 -442 -290 -489 -18 -18 -19 -18 -26 29 -4 27 -4 105 -1 174 7 154 29 248 136 575 83 252 121 377 121 392 -1 15 -209 -502 -246 -611 -51 -149 -73 -277 -86 -495 -12 -214 -12 -213 -92 -338 -93 -143 -183 -354 -225 -522 -43 -176 -53 -263 -60 -500 l-6 -235 -50 90 c-153 278 -209 495 -209 810 0 260 36 446 150 778 31 89 83 245 116 347 111 342 143 393 326 513 179 118 279 228 401 442 29 50 65 132 81 185 93 305 192 776 189 901 l-1 44 -10 -50 c-46 -245 -63 -327 -98 -480 -51 -219 -69 -273 -131 -405 -70 -146 -167 -289 -274 -399 -79 -81 -208 -191 -226 -191 -4 0 35 93 86 208 120 268 188 451 231 620 30 120 35 162 45 347 15 283 1 528 -31 558 -10 9 -11 8 -7 -8z m-3909 -11205 c72 -17 162 -37 200 -46 37 -9 118 -36 180 -61 151 -62 434 -153 473 -153 45 0 53 -19 69 -173 35 -337 101 -633 183 -821 12 -27 20 -50 18 -52 -4 -5 -317 86 -487 141 -530 172 -955 410 -1240 695 -134 133 -328 386 -302 394 58 17 489 86 622 99 98 10 161 5 284 -23z" id="svg_2" fill="none" fill-opacity="1" stroke="#000000" stroke-opacity="1"/>
</g></g></svg>
